<svg width="1280" height="706" viewBox="0 0 1280 706" fill="none" xmlns="http://www.w3.org/2000/svg">
<g opacity="0.5">
<g clip-path="url(#clip0_124_1073)">
<rect x="204.56" y="120" width="399.376" height="245.045" fill="#DBDBDB"/>
<rect x="204.56" y="120" width="904.781" height="34.1649" fill="url(#paint0_linear_124_1073)"/>
<g filter="url(#filter0_f_124_1073)">
<path d="M216.482 133.879H223.657V135.298H218.033V138.778H222.667V140.196H218.033V144.006H223.657V145.425H216.482V133.879ZM225.712 133.879H229.588C231.017 133.879 232.073 134.198 232.754 134.836C233.447 135.463 233.793 136.315 233.793 137.393C233.793 138.162 233.612 138.822 233.249 139.372C232.897 139.922 232.353 140.328 231.616 140.592L234.123 145.425H232.375L230.099 140.889C230.011 140.9 229.923 140.906 229.835 140.906C229.758 140.906 229.676 140.906 229.588 140.906H227.262V145.425H225.712V133.879ZM229.505 139.487C230.462 139.487 231.143 139.306 231.55 138.943C231.968 138.58 232.177 138.063 232.177 137.393C232.177 136.733 231.968 136.221 231.55 135.859C231.132 135.485 230.451 135.298 229.505 135.298H227.262V139.487H229.505ZM235.939 133.879H239.815C241.245 133.879 242.3 134.198 242.982 134.836C243.675 135.463 244.021 136.315 244.021 137.393C244.021 138.162 243.84 138.822 243.477 139.372C243.125 139.922 242.581 140.328 241.844 140.592L244.351 145.425H242.603L240.327 140.889C240.239 140.9 240.151 140.906 240.063 140.906C239.986 140.906 239.903 140.906 239.815 140.906H237.49V145.425H235.939V133.879ZM239.733 139.487C240.69 139.487 241.371 139.306 241.778 138.943C242.196 138.58 242.405 138.063 242.405 137.393C242.405 136.733 242.196 136.221 241.778 135.859C241.36 135.485 240.679 135.298 239.733 135.298H237.49V139.487H239.733ZM250.703 145.557C249.955 145.557 249.279 145.436 248.674 145.194C248.07 144.952 247.547 144.595 247.107 144.122C246.679 143.649 246.343 143.066 246.101 142.374C245.87 141.67 245.755 140.867 245.755 139.965V139.174C245.755 138.316 245.87 137.552 246.101 136.881C246.343 136.21 246.679 135.644 247.107 135.182C247.547 134.71 248.07 134.352 248.674 134.11C249.29 133.868 249.966 133.747 250.703 133.747C251.44 133.747 252.11 133.868 252.715 134.11C253.331 134.352 253.853 134.704 254.282 135.166C254.722 135.628 255.057 136.199 255.288 136.881C255.53 137.552 255.651 138.316 255.651 139.174V139.965C255.651 140.867 255.53 141.664 255.288 142.357C255.057 143.05 254.722 143.633 254.282 144.105C253.853 144.578 253.331 144.941 252.715 145.194C252.11 145.436 251.44 145.557 250.703 145.557ZM250.703 144.138C251.693 144.138 252.495 143.797 253.111 143.116C253.727 142.423 254.035 141.373 254.035 139.965V139.174C254.035 138.514 253.952 137.937 253.787 137.442C253.622 136.936 253.391 136.518 253.095 136.189C252.809 135.848 252.462 135.595 252.055 135.43C251.649 135.254 251.198 135.166 250.703 135.166C250.208 135.166 249.757 135.248 249.351 135.413C248.944 135.578 248.592 135.831 248.295 136.172C247.998 136.502 247.767 136.92 247.602 137.426C247.448 137.92 247.371 138.503 247.371 139.174V139.965C247.371 140.669 247.454 141.285 247.619 141.813C247.784 142.33 248.015 142.764 248.311 143.116C248.608 143.457 248.96 143.715 249.367 143.891C249.774 144.056 250.219 144.138 250.703 144.138ZM257.877 133.879H261.753C263.182 133.879 264.238 134.198 264.92 134.836C265.612 135.463 265.959 136.315 265.959 137.393C265.959 138.162 265.777 138.822 265.414 139.372C265.063 139.922 264.518 140.328 263.782 140.592L266.289 145.425H264.54L262.264 140.889C262.176 140.9 262.088 140.906 262 140.906C261.923 140.906 261.841 140.906 261.753 140.906H259.427V145.425H257.877V133.879ZM261.67 139.487C262.627 139.487 263.309 139.306 263.716 138.943C264.134 138.58 264.342 138.063 264.342 137.393C264.342 136.733 264.134 136.221 263.716 135.859C263.298 135.485 262.616 135.298 261.67 135.298H259.427V139.487H261.67Z" fill="white"/>
</g>
<line x1="208.683" y1="155.343" x2="208.683" y2="123.534" stroke="black" stroke-width="1.1781"/>
<line x1="208.683" y1="155.343" x2="208.683" y2="123.534" stroke="black" stroke-width="1.1781"/>
<line x1="208.683" y1="155.343" x2="208.683" y2="123.534" stroke="black" stroke-width="1.1781"/>
<line x1="1105.81" y1="124.123" x2="209.272" y2="124.123" stroke="black" stroke-width="1.1781"/>
<line x1="1105.81" y1="124.123" x2="209.272" y2="124.123" stroke="black" stroke-width="1.1781"/>
<line x1="1105.81" y1="124.123" x2="209.272" y2="124.123" stroke="black" stroke-width="1.1781"/>
<rect x="575.662" y="128.247" width="22.5079" height="22.5079" fill="#B3B3B3"/>
<line x1="583.616" y1="143.145" x2="590.684" y2="136.077" stroke="black" stroke-width="1.1781"/>
<line x1="583.271" y1="136.077" x2="590.339" y2="143.146" stroke="black" stroke-width="1.1781"/>
<line x1="575.786" y1="128.836" x2="598.17" y2="128.836" stroke="white" stroke-width="1.1781"/>
<line x1="575.786" y1="128.836" x2="598.17" y2="128.836" stroke="white" stroke-width="1.1781"/>
<line x1="575.786" y1="128.836" x2="598.17" y2="128.836" stroke="white" stroke-width="1.1781"/>
<line x1="576.375" y1="129.425" x2="576.375" y2="150.631" stroke="white" stroke-width="1.1781"/>
<line x1="576.375" y1="129.425" x2="576.375" y2="150.631" stroke="white" stroke-width="1.1781"/>
<line x1="576.375" y1="129.425" x2="576.375" y2="150.631" stroke="white" stroke-width="1.1781"/>
<line x1="597.581" y1="149.453" x2="597.581" y2="129.425" stroke="#434343" stroke-width="1.1781"/>
<line x1="597.581" y1="149.453" x2="597.581" y2="129.425" stroke="#434343" stroke-width="1.1781"/>
<line x1="598.17" y1="150.042" x2="576.964" y2="150.042" stroke="#434343" stroke-width="1.1781"/>
<line x1="598.17" y1="150.042" x2="576.964" y2="150.042" stroke="#434343" stroke-width="1.1781"/>
<rect x="575.662" y="128.247" width="22.5079" height="22.5079" fill="#B3B3B3"/>
<line x1="583.616" y1="143.145" x2="590.684" y2="136.077" stroke="black" stroke-width="1.1781"/>
<line x1="583.271" y1="136.077" x2="590.339" y2="143.146" stroke="black" stroke-width="1.1781"/>
<line x1="575.786" y1="128.836" x2="598.17" y2="128.836" stroke="white" stroke-width="1.1781"/>
<line x1="575.786" y1="128.836" x2="598.17" y2="128.836" stroke="white" stroke-width="1.1781"/>
<line x1="575.786" y1="128.836" x2="598.17" y2="128.836" stroke="white" stroke-width="1.1781"/>
<line x1="576.375" y1="129.425" x2="576.375" y2="150.631" stroke="white" stroke-width="1.1781"/>
<line x1="576.375" y1="129.425" x2="576.375" y2="150.631" stroke="white" stroke-width="1.1781"/>
<line x1="576.375" y1="129.425" x2="576.375" y2="150.631" stroke="white" stroke-width="1.1781"/>
<line x1="597.581" y1="149.453" x2="597.581" y2="129.425" stroke="#434343" stroke-width="1.1781"/>
<line x1="597.581" y1="149.453" x2="597.581" y2="129.425" stroke="#434343" stroke-width="1.1781"/>
<line x1="598.17" y1="150.042" x2="576.964" y2="150.042" stroke="#434343" stroke-width="1.1781"/>
<line x1="598.17" y1="150.042" x2="576.964" y2="150.042" stroke="#434343" stroke-width="1.1781"/>
</g>
<rect x="206.327" y="121.767" width="395.842" height="241.51" stroke="#131313" stroke-width="3.5343"/>
</g>
<g opacity="0.5">
<g clip-path="url(#clip1_124_1073)">
<rect x="609.36" y="155.2" width="458.281" height="245.045" fill="#DBDBDB"/>
<rect x="609.36" y="155.2" width="904.781" height="34.1649" fill="url(#paint1_linear_124_1073)"/>
<g filter="url(#filter1_f_124_1073)">
<path d="M621.282 169.079H628.457V170.498H622.833V173.978H627.467V175.396H622.833V179.206H628.457V180.625H621.282V169.079ZM630.512 169.079H634.388C635.817 169.079 636.873 169.398 637.554 170.036C638.247 170.663 638.593 171.515 638.593 172.592C638.593 173.362 638.412 174.022 638.049 174.572C637.697 175.121 637.153 175.528 636.416 175.792L638.923 180.625H637.175L634.899 176.089C634.811 176.1 634.723 176.106 634.635 176.106C634.558 176.106 634.475 176.106 634.388 176.106H632.062V180.625H630.512V169.079ZM634.305 174.687C635.262 174.687 635.943 174.506 636.35 174.143C636.768 173.78 636.977 173.263 636.977 172.592C636.977 171.933 636.768 171.421 636.35 171.059C635.932 170.685 635.251 170.498 634.305 170.498H632.062V174.687H634.305ZM640.739 169.079H644.615C646.045 169.079 647.1 169.398 647.782 170.036C648.475 170.663 648.821 171.515 648.821 172.592C648.821 173.362 648.64 174.022 648.277 174.572C647.925 175.121 647.381 175.528 646.644 175.792L649.151 180.625H647.403L645.127 176.089C645.039 176.1 644.951 176.106 644.863 176.106C644.786 176.106 644.703 176.106 644.615 176.106H642.29V180.625H640.739V169.079ZM644.533 174.687C645.49 174.687 646.171 174.506 646.578 174.143C646.996 173.78 647.205 173.263 647.205 172.592C647.205 171.933 646.996 171.421 646.578 171.059C646.16 170.685 645.479 170.498 644.533 170.498H642.29V174.687H644.533ZM655.503 180.757C654.755 180.757 654.079 180.636 653.474 180.394C652.87 180.152 652.347 179.795 651.907 179.322C651.479 178.849 651.143 178.266 650.901 177.573C650.67 176.87 650.555 176.067 650.555 175.165V174.374C650.555 173.516 650.67 172.752 650.901 172.081C651.143 171.41 651.479 170.844 651.907 170.382C652.347 169.91 652.87 169.552 653.474 169.31C654.09 169.068 654.766 168.947 655.503 168.947C656.24 168.947 656.91 169.068 657.515 169.31C658.131 169.552 658.653 169.904 659.082 170.366C659.522 170.828 659.857 171.399 660.088 172.081C660.33 172.752 660.451 173.516 660.451 174.374V175.165C660.451 176.067 660.33 176.864 660.088 177.557C659.857 178.25 659.522 178.832 659.082 179.305C658.653 179.778 658.131 180.141 657.515 180.394C656.91 180.636 656.24 180.757 655.503 180.757ZM655.503 179.338C656.493 179.338 657.295 178.997 657.911 178.316C658.527 177.623 658.835 176.573 658.835 175.165V174.374C658.835 173.714 658.752 173.137 658.587 172.642C658.422 172.136 658.191 171.718 657.894 171.388C657.609 171.048 657.262 170.795 656.855 170.63C656.449 170.454 655.998 170.366 655.503 170.366C655.008 170.366 654.557 170.448 654.15 170.613C653.744 170.778 653.392 171.031 653.095 171.372C652.798 171.702 652.567 172.12 652.402 172.625C652.248 173.12 652.171 173.703 652.171 174.374V175.165C652.171 175.869 652.254 176.485 652.419 177.013C652.584 177.529 652.815 177.964 653.111 178.316C653.408 178.657 653.76 178.915 654.167 179.091C654.574 179.256 655.019 179.338 655.503 179.338ZM662.677 169.079H666.553C667.982 169.079 669.038 169.398 669.72 170.036C670.412 170.663 670.759 171.515 670.759 172.592C670.759 173.362 670.577 174.022 670.214 174.572C669.863 175.121 669.318 175.528 668.582 175.792L671.089 180.625H669.34L667.064 176.089C666.976 176.1 666.888 176.106 666.8 176.106C666.723 176.106 666.641 176.106 666.553 176.106H664.227V180.625H662.677V169.079ZM666.47 174.687C667.427 174.687 668.109 174.506 668.516 174.143C668.933 173.78 669.142 173.263 669.142 172.592C669.142 171.933 668.933 171.421 668.516 171.059C668.098 170.685 667.416 170.498 666.47 170.498H664.227V174.687H666.47Z" fill="white"/>
</g>
<line x1="613.483" y1="190.543" x2="613.483" y2="158.734" stroke="black" stroke-width="1.1781"/>
<line x1="613.483" y1="190.543" x2="613.483" y2="158.734" stroke="black" stroke-width="1.1781"/>
<line x1="613.483" y1="190.543" x2="613.483" y2="158.734" stroke="black" stroke-width="1.1781"/>
<line x1="1510.61" y1="159.323" x2="614.072" y2="159.323" stroke="black" stroke-width="1.1781"/>
<line x1="1510.61" y1="159.323" x2="614.072" y2="159.323" stroke="black" stroke-width="1.1781"/>
<line x1="1510.61" y1="159.323" x2="614.072" y2="159.323" stroke="black" stroke-width="1.1781"/>
<rect x="1039.37" y="162.269" width="22.5079" height="22.5079" fill="#B3B3B3"/>
<line x1="1047.32" y1="177.167" x2="1054.39" y2="170.099" stroke="black" stroke-width="1.1781"/>
<line x1="1046.98" y1="170.099" x2="1054.04" y2="177.167" stroke="black" stroke-width="1.1781"/>
<line x1="1039.49" y1="162.858" x2="1061.87" y2="162.858" stroke="white" stroke-width="1.1781"/>
<line x1="1039.49" y1="162.858" x2="1061.87" y2="162.858" stroke="white" stroke-width="1.1781"/>
<line x1="1039.49" y1="162.858" x2="1061.87" y2="162.858" stroke="white" stroke-width="1.1781"/>
<line x1="1040.08" y1="163.447" x2="1040.08" y2="184.653" stroke="white" stroke-width="1.1781"/>
<line x1="1040.08" y1="163.447" x2="1040.08" y2="184.653" stroke="white" stroke-width="1.1781"/>
<line x1="1040.08" y1="163.447" x2="1040.08" y2="184.653" stroke="white" stroke-width="1.1781"/>
<line x1="1061.29" y1="183.474" x2="1061.29" y2="163.447" stroke="#434343" stroke-width="1.1781"/>
<line x1="1061.29" y1="183.474" x2="1061.29" y2="163.447" stroke="#434343" stroke-width="1.1781"/>
<line x1="1061.87" y1="184.064" x2="1040.67" y2="184.064" stroke="#434343" stroke-width="1.1781"/>
<line x1="1061.87" y1="184.064" x2="1040.67" y2="184.064" stroke="#434343" stroke-width="1.1781"/>
</g>
<rect x="611.127" y="156.967" width="454.747" height="241.51" stroke="#131313" stroke-width="3.5343"/>
</g>
<g clip-path="url(#clip2_124_1073)">
<rect x="418.435" y="197.654" width="458.281" height="245.045" fill="#DBDBDB"/>
<rect x="418.435" y="197.654" width="904.781" height="34.1649" fill="url(#paint2_linear_124_1073)"/>
<g filter="url(#filter2_f_124_1073)">
<path d="M430.358 211.534H437.532V212.952H431.908V216.433H436.543V217.851H431.908V221.661H437.532V223.079H430.358V211.534ZM439.587 211.534H443.463C444.892 211.534 445.948 211.853 446.629 212.491C447.322 213.117 447.669 213.969 447.669 215.047C447.669 215.817 447.487 216.476 447.124 217.026C446.772 217.576 446.228 217.983 445.491 218.247L447.998 223.079H446.25L443.974 218.544C443.886 218.555 443.798 218.56 443.71 218.56C443.633 218.56 443.551 218.56 443.463 218.56H441.137V223.079H439.587V211.534ZM443.38 217.142C444.337 217.142 445.019 216.96 445.425 216.597C445.843 216.235 446.052 215.718 446.052 215.047C446.052 214.387 445.843 213.876 445.425 213.513C445.008 213.139 444.326 212.952 443.38 212.952H441.137V217.142H443.38ZM449.815 211.534H453.691C455.12 211.534 456.176 211.853 456.857 212.491C457.55 213.117 457.896 213.969 457.896 215.047C457.896 215.817 457.715 216.476 457.352 217.026C457 217.576 456.456 217.983 455.719 218.247L458.226 223.079H456.478L454.202 218.544C454.114 218.555 454.026 218.56 453.938 218.56C453.861 218.56 453.779 218.56 453.691 218.56H451.365V223.079H449.815V211.534ZM453.608 217.142C454.565 217.142 455.246 216.96 455.653 216.597C456.071 216.235 456.28 215.718 456.28 215.047C456.28 214.387 456.071 213.876 455.653 213.513C455.235 213.139 454.554 212.952 453.608 212.952H451.365V217.142H453.608ZM464.578 223.211C463.83 223.211 463.154 223.09 462.549 222.848C461.945 222.607 461.422 222.249 460.983 221.776C460.554 221.304 460.218 220.721 459.976 220.028C459.746 219.324 459.63 218.522 459.63 217.62V216.828C459.63 215.971 459.746 215.206 459.976 214.536C460.218 213.865 460.554 213.299 460.983 212.837C461.422 212.364 461.945 212.007 462.549 211.765C463.165 211.523 463.841 211.402 464.578 211.402C465.315 211.402 465.986 211.523 466.59 211.765C467.206 212.007 467.728 212.359 468.157 212.82C468.597 213.282 468.932 213.854 469.163 214.536C469.405 215.206 469.526 215.971 469.526 216.828V217.62C469.526 218.522 469.405 219.319 469.163 220.012C468.932 220.704 468.597 221.287 468.157 221.76C467.728 222.233 467.206 222.596 466.59 222.848C465.986 223.09 465.315 223.211 464.578 223.211ZM464.578 221.793C465.568 221.793 466.37 221.452 466.986 220.77C467.602 220.078 467.91 219.027 467.91 217.62V216.828C467.91 216.169 467.827 215.591 467.662 215.097C467.497 214.591 467.267 214.173 466.97 213.843C466.684 213.502 466.337 213.249 465.931 213.084C465.524 212.908 465.073 212.82 464.578 212.82C464.083 212.82 463.633 212.903 463.226 213.068C462.819 213.233 462.467 213.486 462.17 213.827C461.873 214.156 461.642 214.574 461.477 215.08C461.323 215.575 461.246 216.158 461.246 216.828V217.62C461.246 218.324 461.329 218.94 461.494 219.467C461.659 219.984 461.89 220.418 462.187 220.77C462.483 221.111 462.835 221.37 463.242 221.545C463.649 221.71 464.094 221.793 464.578 221.793ZM471.752 211.534H475.628C477.058 211.534 478.113 211.853 478.795 212.491C479.488 213.117 479.834 213.969 479.834 215.047C479.834 215.817 479.652 216.476 479.29 217.026C478.938 217.576 478.393 217.983 477.657 218.247L480.164 223.079H478.415L476.139 218.544C476.051 218.555 475.963 218.56 475.875 218.56C475.799 218.56 475.716 218.56 475.628 218.56H473.303V223.079H471.752V211.534ZM475.546 217.142C476.502 217.142 477.184 216.96 477.591 216.597C478.009 216.235 478.218 215.718 478.218 215.047C478.218 214.387 478.009 213.876 477.591 213.513C477.173 213.139 476.491 212.952 475.546 212.952H473.303V217.142H475.546Z" fill="white"/>
</g>
<line x1="422.559" y1="232.997" x2="422.559" y2="201.189" stroke="black" stroke-width="1.1781"/>
<line x1="422.559" y1="232.997" x2="422.559" y2="201.189" stroke="black" stroke-width="1.1781"/>
<line x1="422.559" y1="232.997" x2="422.559" y2="201.189" stroke="black" stroke-width="1.1781"/>
<line x1="1319.68" y1="201.778" x2="423.148" y2="201.778" stroke="black" stroke-width="1.1781"/>
<line x1="1319.68" y1="201.778" x2="423.148" y2="201.778" stroke="black" stroke-width="1.1781"/>
<line x1="1319.68" y1="201.778" x2="423.148" y2="201.778" stroke="black" stroke-width="1.1781"/>
<line x1="855.218" y1="218.444" x2="862.286" y2="211.375" stroke="black" stroke-width="1.1781"/>
<line x1="854.873" y1="211.375" x2="861.941" y2="218.444" stroke="black" stroke-width="1.1781"/>
<rect x="848.442" y="205.901" width="22.5079" height="22.5079" fill="#B3B3B3"/>
<line x1="856.396" y1="220.8" x2="863.465" y2="213.731" stroke="black" stroke-width="1.1781"/>
<line x1="856.051" y1="213.731" x2="863.12" y2="220.8" stroke="black" stroke-width="1.1781"/>
<line x1="848.442" y1="206.494" x2="870.702" y2="206.494" stroke="white" stroke-width="1.17157"/>
<line x1="848.442" y1="206.494" x2="870.702" y2="206.494" stroke="white" stroke-width="1.17157"/>
<line x1="848.442" y1="206.494" x2="870.702" y2="206.494" stroke="white" stroke-width="1.17157"/>
<line x1="849.027" y1="207.079" x2="849.028" y2="228.168" stroke="white" stroke-width="1.17157"/>
<line x1="849.027" y1="207.079" x2="849.028" y2="228.168" stroke="white" stroke-width="1.17157"/>
<line x1="849.027" y1="207.079" x2="849.028" y2="228.168" stroke="white" stroke-width="1.17157"/>
<line x1="870.116" y1="226.996" x2="870.116" y2="207.079" stroke="#434343" stroke-width="1.17157"/>
<line x1="870.116" y1="226.996" x2="870.116" y2="207.079" stroke="#434343" stroke-width="1.17157"/>
<line x1="870.702" y1="227.582" x2="849.613" y2="227.582" stroke="#434343" stroke-width="1.17157"/>
<line x1="870.702" y1="227.582" x2="849.613" y2="227.582" stroke="#434343" stroke-width="1.17157"/>
</g>
<rect x="420.202" y="199.422" width="454.747" height="241.51" stroke="#131313" stroke-width="3.5343"/>
<defs>
<filter id="filter0_f_124_1073" x="214.715" y="131.98" width="53.3406" height="15.3436" filterUnits="userSpaceOnUse" color-interpolation-filters="sRGB">
<feFlood flood-opacity="0" result="BackgroundImageFix"/>
<feBlend mode="normal" in="SourceGraphic" in2="BackgroundImageFix" result="shape"/>
<feGaussianBlur stdDeviation="0.883575" result="effect1_foregroundBlur_124_1073"/>
</filter>
<filter id="filter1_f_124_1073" x="619.515" y="167.18" width="53.3405" height="15.3436" filterUnits="userSpaceOnUse" color-interpolation-filters="sRGB">
<feFlood flood-opacity="0" result="BackgroundImageFix"/>
<feBlend mode="normal" in="SourceGraphic" in2="BackgroundImageFix" result="shape"/>
<feGaussianBlur stdDeviation="0.883575" result="effect1_foregroundBlur_124_1073"/>
</filter>
<filter id="filter2_f_124_1073" x="428.59" y="209.635" width="53.3405" height="15.3436" filterUnits="userSpaceOnUse" color-interpolation-filters="sRGB">
<feFlood flood-opacity="0" result="BackgroundImageFix"/>
<feBlend mode="normal" in="SourceGraphic" in2="BackgroundImageFix" result="shape"/>
<feGaussianBlur stdDeviation="0.883575" result="effect1_foregroundBlur_124_1073"/>
</filter>
<linearGradient id="paint0_linear_124_1073" x1="622.786" y1="120" x2="622.786" y2="195.398" gradientUnits="userSpaceOnUse">
<stop offset="0.245" stop-color="#040085"/>
<stop offset="1" stop-color="#01001F"/>
</linearGradient>
<linearGradient id="paint1_linear_124_1073" x1="1027.59" y1="155.2" x2="1027.59" y2="230.598" gradientUnits="userSpaceOnUse">
<stop offset="0.245" stop-color="#040085"/>
<stop offset="1" stop-color="#01001F"/>
</linearGradient>
<linearGradient id="paint2_linear_124_1073" x1="836.661" y1="197.654" x2="836.661" y2="273.053" gradientUnits="userSpaceOnUse">
<stop offset="0.245" stop-color="#040085"/>
<stop offset="1" stop-color="#01001F"/>
</linearGradient>
<clipPath id="clip0_124_1073">
<rect x="204.56" y="120" width="399.376" height="245.045" fill="white"/>
</clipPath>
<clipPath id="clip1_124_1073">
<rect x="609.36" y="155.2" width="458.281" height="245.045" fill="white"/>
</clipPath>
<clipPath id="clip2_124_1073">
<rect x="418.435" y="197.654" width="458.281" height="245.045" fill="white"/>
</clipPath>
</defs>
</svg>
